# xmcd CD database file
#
# Track frame offsets:
#	150
#	29960
#	55525
#	86975
#	109397
#	132970
#	173512
#	192745
#	215877
#	248022
#	277862
#
# Disc length: 3992 seconds
#
# Revision: 0
# Processed by: cddbd v1.5.2PL0 Copyright (c) Steve Scherf et al.
# Submitted via: CDex 1.51
#
DISCID=a70f960b
DTITLE=Brian Lemon - How Long Has This Been Going On?
DYEAR=1995
DGENRE=Jazz
TTITLE0=Sweet Georgia Brown
TTITLE1=How Long Has This Been Going On?
TTITLE2=Georgia On My Mind
TTITLE3=Bey Bey Blues
TTITLE4=I Can't Get Started With You
TTITLE5=Blues In The Closet
TTITLE6=In The Wee Small Hours
TTITLE7=I Remember You
TTITLE8=Tenderly
TTITLE9=When I Fall In Love
TTITLE10=I've Found A New Baby
EXTD=YEAR: 1995
EXTT0=
EXTT1=
EXTT2=
EXTT3=
EXTT4=
EXTT5=
EXTT6=
EXTT7=
EXTT8=
EXTT9=
EXTT10=
PLAYORDER=
